STARTFONT 2.1
FONT -Patrick J. Thomas-mono_size_13_09_design_1_bold_pixel-Normal-R-Normal--18-180-72-72-P-0--
SIZE 18 72 72
FONTBOUNDINGBOX 16 17 1 -4
STARTPROPERTIES 24
FAMILY_NAME "mono_size_13_09_design_1_bold_pixel"
DEFAULT_CHAR -1
FOUNDRY "Patrick J. Thomas"
COPYRIGHT "Copyright (c) 2026, Patrick J. Thomas. All rights reserved."
CODEPAGE "MS Windows 1252 Western (ANSI)"
ENC_MODE 2
DESIGNER "Patrick J. Thomas"
CREATION_YEAR 2026
WEIGHT_NAME "Normal"
SLANT "R"
SETWIDTH_NAME "Normal"
SPACING "P"
WEIGHT 400
HI_VERSION 1
FONTNAME_REGISTRY "-"
BREAK_CHAR 32
PIXEL_SIZE 18
POINT_SIZE 180
FONT_ASCENT 14
FONT_DESCENT 4
RESOLUTION_X 72
RESOLUTION_Y 72
X_HEIGHT 9
CAP_HEIGHT 14
ENDPROPERTIES
CHARS 150
STARTCHAR .uni0020
ENCODING 32
SWIDTH 526 0
DWIDTH 10 0
BBX 0 0 0 0
BITMAP
ENDCHAR
STARTCHAR .uni0021
ENCODING 33
SWIDTH 526 0
DWIDTH 10 0
BBX 2 13 4 0
BITMAP
C000
C000
C000
C000
C000
C000
C000
C000
C000
C000
0000
0000
C000
ENDCHAR
STARTCHAR .uni0022
ENCODING 34
SWIDTH 526 0
DWIDTH 10 0
BBX 4 3 3 10
BITMAP
F000
F000
F000
ENDCHAR
STARTCHAR .uni0023
ENCODING 35
SWIDTH 526 0
DWIDTH 10 0
BBX 8 7 1 3
BITMAP
3C00
3C00
FF00
3C00
FF00
3C00
3C00
ENDCHAR
STARTCHAR .uni0024
ENCODING 36
SWIDTH 526 0
DWIDTH 10 0
BBX 8 13 1 0
BITMAP
1800
1800
3C00
7E00
D800
7800
3C00
1E00
1B00
7E00
3C00
1800
1800
ENDCHAR
STARTCHAR .uni0025
ENCODING 37
SWIDTH 526 0
DWIDTH 10 0
BBX 8 7 1 3
BITMAP
C300
0600
0C00
1800
3000
6000
C300
ENDCHAR
STARTCHAR .uni0026
ENCODING 38
SWIDTH 526 0
DWIDTH 10 0
BBX 8 13 1 0
BITMAP
3000
7800
CC00
CC00
7800
3000
7800
CF00
C600
C600
C600
6F00
3800
ENDCHAR
STARTCHAR .uni0027
ENCODING 39
SWIDTH 526 0
DWIDTH 10 0
BBX 2 3 4 10
BITMAP
C000
C000
C000
ENDCHAR
STARTCHAR .uni0028
ENCODING 40
SWIDTH 526 0
DWIDTH 10 0
BBX 6 17 2 -4
BITMAP
0C00
1800
3000
6000
C000
C000
C000
C000
C000
C000
C000
C000
C000
6000
3000
1800
0C00
ENDCHAR
STARTCHAR .uni0029
ENCODING 41
SWIDTH 526 0
DWIDTH 10 0
BBX 6 17 2 -4
BITMAP
C000
6000
3000
1800
0C00
0C00
0C00
0C00
0C00
0C00
0C00
0C00
0C00
1800
3000
6000
C000
ENDCHAR
STARTCHAR .uni002A
ENCODING 42
SWIDTH 526 0
DWIDTH 10 0
BBX 8 7 1 3
BITMAP
1800
DB00
7E00
3C00
7E00
DB00
1800
ENDCHAR
STARTCHAR .uni002B
ENCODING 43
SWIDTH 526 0
DWIDTH 10 0
BBX 8 7 1 3
BITMAP
1800
1800
1800
FF00
1800
1800
1800
ENDCHAR
STARTCHAR .uni002C
ENCODING 44
SWIDTH 526 0
DWIDTH 10 0
BBX 4 3 3 -2
BITMAP
3000
6000
C000
ENDCHAR
STARTCHAR .uni002D
ENCODING 45
SWIDTH 526 0
DWIDTH 10 0
BBX 8 1 1 6
BITMAP
FF00
ENDCHAR
STARTCHAR .uni002E
ENCODING 46
SWIDTH 526 0
DWIDTH 10 0
BBX 2 1 4 0
BITMAP
C000
ENDCHAR
STARTCHAR .uni002F
ENCODING 47
SWIDTH 526 0
DWIDTH 10 0
BBX 8 7 1 3
BITMAP
0300
0600
0C00
1800
3000
6000
C000
ENDCHAR
STARTCHAR .uni0030
ENCODING 48
SWIDTH 526 0
DWIDTH 10 0
BBX 8 13 1 0
BITMAP
3C00
6600
C300
C300
C700
CF00
DB00
F300
E300
C300
C300
6600
3C00
ENDCHAR
STARTCHAR .uni0031
ENCODING 49
SWIDTH 526 0
DWIDTH 10 0
BBX 5 13 1 0
BITMAP
1800
3800
7800
D800
1800
1800
1800
1800
1800
1800
1800
1800
1800
ENDCHAR
STARTCHAR .uni0032
ENCODING 50
SWIDTH 526 0
DWIDTH 10 0
BBX 8 13 1 0
BITMAP
3C00
6600
C300
0300
0300
0600
0C00
1800
3000
6000
C000
C000
FF00
ENDCHAR
STARTCHAR .uni0033
ENCODING 51
SWIDTH 526 0
DWIDTH 10 0
BBX 8 13 1 0
BITMAP
3C00
6600
C300
0300
0300
0600
1C00
0600
0300
0300
C300
6600
3C00
ENDCHAR
STARTCHAR .uni0034
ENCODING 52
SWIDTH 526 0
DWIDTH 10 0
BBX 8 13 1 0
BITMAP
0600
0E00
1E00
3600
6600
C600
FF00
0600
0600
0600
0600
0600
0600
ENDCHAR
STARTCHAR .uni0035
ENCODING 53
SWIDTH 526 0
DWIDTH 10 0
BBX 8 13 1 0
BITMAP
FF00
C000
C000
C000
C000
C000
FC00
0600
0300
0300
C300
6600
3C00
ENDCHAR
STARTCHAR .uni0036
ENCODING 54
SWIDTH 526 0
DWIDTH 10 0
BBX 8 13 1 0
BITMAP
3C00
6600
C300
C000
C000
C000
FC00
E600
C300
C300
C300
6600
3C00
ENDCHAR
STARTCHAR .uni0037
ENCODING 55
SWIDTH 526 0
DWIDTH 10 0
BBX 8 13 1 0
BITMAP
FF00
0300
0300
0300
0600
0C00
1800
1800
1800
1800
1800
1800
1800
ENDCHAR
STARTCHAR .uni0038
ENCODING 56
SWIDTH 526 0
DWIDTH 10 0
BBX 8 13 1 0
BITMAP
3C00
6600
C300
C300
C300
6600
3C00
6600
C300
C300
C300
6600
3C00
ENDCHAR
STARTCHAR .uni0039
ENCODING 57
SWIDTH 526 0
DWIDTH 10 0
BBX 8 13 1 0
BITMAP
3C00
6600
C300
C300
C300
6700
3F00
0300
0300
0300
C300
6600
3C00
ENDCHAR
STARTCHAR .uni003A
ENCODING 58
SWIDTH 526 0
DWIDTH 10 0
BBX 2 7 4 3
BITMAP
C000
0000
0000
0000
0000
0000
C000
ENDCHAR
STARTCHAR .uni003B
ENCODING 59
SWIDTH 526 0
DWIDTH 10 0
BBX 4 12 3 -2
BITMAP
3000
0000
0000
0000
0000
0000
0000
0000
0000
3000
6000
C000
ENDCHAR
STARTCHAR .uni003C
ENCODING 60
SWIDTH 526 0
DWIDTH 10 0
BBX 6 9 2 2
BITMAP
0C00
1800
3000
6000
C000
6000
3000
1800
0C00
ENDCHAR
STARTCHAR .uni003D
ENCODING 61
SWIDTH 526 0
DWIDTH 10 0
BBX 8 5 1 4
BITMAP
FF00
0000
0000
0000
FF00
ENDCHAR
STARTCHAR .uni003E
ENCODING 62
SWIDTH 526 0
DWIDTH 10 0
BBX 6 9 2 2
BITMAP
C000
6000
3000
1800
0C00
1800
3000
6000
C000
ENDCHAR
STARTCHAR .uni003F
ENCODING 63
SWIDTH 526 0
DWIDTH 10 0
BBX 8 13 1 0
BITMAP
3C00
6600
C300
C300
0300
0600
0C00
1800
1800
1800
0000
0000
1800
ENDCHAR
STARTCHAR .uni0040
ENCODING 64
SWIDTH 526 0
DWIDTH 10 0
BBX 8 13 1 0
BITMAP
1C00
3600
6300
CF00
DB00
F300
F300
F300
DB00
CF00
6000
3000
1E00
ENDCHAR
STARTCHAR .uni0041
ENCODING 65
SWIDTH 526 0
DWIDTH 10 0
BBX 8 13 1 0
BITMAP
3C00
6600
C300
C300
C300
C300
FF00
C300
C300
C300
C300
C300
C300
ENDCHAR
STARTCHAR .uni0042
ENCODING 66
SWIDTH 526 0
DWIDTH 10 0
BBX 8 13 1 0
BITMAP
FC00
C600
C300
C300
C300
C600
FC00
C600
C300
C300
C300
C600
FC00
ENDCHAR
STARTCHAR .uni0043
ENCODING 67
SWIDTH 526 0
DWIDTH 10 0
BBX 8 13 1 0
BITMAP
3C00
6600
C300
C000
C000
C000
C000
C000
C000
C000
C300
6600
3C00
ENDCHAR
STARTCHAR .uni0044
ENCODING 68
SWIDTH 526 0
DWIDTH 10 0
BBX 8 13 1 0
BITMAP
FC00
C600
C300
C300
C300
C300
C300
C300
C300
C300
C300
C600
FC00
ENDCHAR
STARTCHAR .uni0045
ENCODING 69
SWIDTH 526 0
DWIDTH 10 0
BBX 8 13 1 0
BITMAP
FF00
C000
C000
C000
C000
C000
FF00
C000
C000
C000
C000
C000
FF00
ENDCHAR
STARTCHAR .uni0046
ENCODING 70
SWIDTH 526 0
DWIDTH 10 0
BBX 8 13 1 0
BITMAP
FF00
C000
C000
C000
C000
C000
FF00
C000
C000
C000
C000
C000
C000
ENDCHAR
STARTCHAR .uni0047
ENCODING 71
SWIDTH 526 0
DWIDTH 10 0
BBX 8 13 1 0
BITMAP
3C00
6600
C300
C000
C000
C000
CF00
C300
C300
C300
C300
6600
3C00
ENDCHAR
STARTCHAR .uni0048
ENCODING 72
SWIDTH 526 0
DWIDTH 10 0
BBX 8 13 1 0
BITMAP
C300
C300
C300
C300
C300
C300
FF00
C300
C300
C300
C300
C300
C300
ENDCHAR
STARTCHAR .uni0049
ENCODING 73
SWIDTH 526 0
DWIDTH 10 0
BBX 8 13 1 0
BITMAP
FF00
1800
1800
1800
1800
1800
1800
1800
1800
1800
1800
1800
FF00
ENDCHAR
STARTCHAR .uni004A
ENCODING 74
SWIDTH 526 0
DWIDTH 10 0
BBX 8 13 1 0
BITMAP
0300
0300
0300
0300
0300
0300
0300
0300
0300
C300
C300
6600
3C00
ENDCHAR
STARTCHAR .uni004B
ENCODING 75
SWIDTH 526 0
DWIDTH 10 0
BBX 8 13 1 0
BITMAP
C300
C600
CC00
D800
F000
E000
C000
E000
F000
D800
CC00
C600
C300
ENDCHAR
STARTCHAR .uni004C
ENCODING 76
SWIDTH 526 0
DWIDTH 10 0
BBX 8 13 1 0
BITMAP
C000
C000
C000
C000
C000
C000
C000
C000
C000
C000
C000
C000
FF00
ENDCHAR
STARTCHAR .uni004D
ENCODING 77
SWIDTH 526 0
DWIDTH 10 0
BBX 8 13 1 0
BITMAP
C300
E700
FF00
DB00
C300
C300
C300
C300
C300
C300
C300
C300
C300
ENDCHAR
STARTCHAR .uni004E
ENCODING 78
SWIDTH 526 0
DWIDTH 10 0
BBX 8 13 1 0
BITMAP
C300
E300
F300
DB00
CF00
C700
C300
C300
C300
C300
C300
C300
C300
ENDCHAR
STARTCHAR .uni004F
ENCODING 79
SWIDTH 526 0
DWIDTH 10 0
BBX 8 13 1 0
BITMAP
3C00
6600
C300
C300
C300
C300
C300
C300
C300
C300
C300
6600
3C00
ENDCHAR
STARTCHAR .uni0050
ENCODING 80
SWIDTH 526 0
DWIDTH 10 0
BBX 8 13 1 0
BITMAP
FC00
C600
C300
C300
C300
C600
FC00
C000
C000
C000
C000
C000
C000
ENDCHAR
STARTCHAR .uni0051
ENCODING 81
SWIDTH 526 0
DWIDTH 10 0
BBX 8 13 1 0
BITMAP
3C00
6600
C300
C300
C300
C300
C300
C300
C300
C300
CF00
6600
3F00
ENDCHAR
STARTCHAR .uni0052
ENCODING 82
SWIDTH 526 0
DWIDTH 10 0
BBX 8 13 1 0
BITMAP
FC00
C600
C300
C300
C300
C600
FC00
C600
C300
C300
C300
C300
C300
ENDCHAR
STARTCHAR .uni0053
ENCODING 83
SWIDTH 526 0
DWIDTH 10 0
BBX 8 13 1 0
BITMAP
3C00
6600
C300
C000
C000
6000
3C00
0600
0300
0300
C300
6600
3C00
ENDCHAR
STARTCHAR .uni0054
ENCODING 84
SWIDTH 526 0
DWIDTH 10 0
BBX 8 13 1 0
BITMAP
FF00
1800
1800
1800
1800
1800
1800
1800
1800
1800
1800
1800
1800
ENDCHAR
STARTCHAR .uni0055
ENCODING 85
SWIDTH 526 0
DWIDTH 10 0
BBX 8 13 1 0
BITMAP
C300
C300
C300
C300
C300
C300
C300
C300
C300
C300
C300
6600
3C00
ENDCHAR
STARTCHAR .uni0056
ENCODING 86
SWIDTH 526 0
DWIDTH 10 0
BBX 8 13 1 0
BITMAP
C300
C300
C300
C300
C300
C300
C300
C300
C300
C300
6600
3C00
1800
ENDCHAR
STARTCHAR .uni0057
ENCODING 87
SWIDTH 526 0
DWIDTH 10 0
BBX 8 13 1 0
BITMAP
C300
C300
C300
C300
C300
C300
C300
C300
C300
DB00
FF00
E700
C300
ENDCHAR
STARTCHAR .uni0058
ENCODING 88
SWIDTH 526 0
DWIDTH 10 0
BBX 8 13 1 0
BITMAP
C300
C300
C300
C300
6600
3C00
1800
3C00
6600
C300
C300
C300
C300
ENDCHAR
STARTCHAR .uni0059
ENCODING 89
SWIDTH 526 0
DWIDTH 10 0
BBX 8 13 1 0
BITMAP
C300
C300
C300
C300
6600
3C00
1800
1800
1800
1800
1800
1800
1800
ENDCHAR
STARTCHAR .uni005A
ENCODING 90
SWIDTH 526 0
DWIDTH 10 0
BBX 8 13 1 0
BITMAP
FF00
0300
0300
0300
0600
0C00
1800
3000
6000
C000
C000
C000
FF00
ENDCHAR
STARTCHAR .uni005B
ENCODING 91
SWIDTH 526 0
DWIDTH 10 0
BBX 4 17 3 -4
BITMAP
F000
C000
C000
C000
C000
C000
C000
C000
C000
C000
C000
C000
C000
C000
C000
C000
F000
ENDCHAR
STARTCHAR .uni005C
ENCODING 92
SWIDTH 526 0
DWIDTH 10 0
BBX 8 7 1 3
BITMAP
C000
6000
3000
1800
0C00
0600
0300
ENDCHAR
STARTCHAR .uni005D
ENCODING 93
SWIDTH 526 0
DWIDTH 10 0
BBX 4 17 3 -4
BITMAP
F000
3000
3000
3000
3000
3000
3000
3000
3000
3000
3000
3000
3000
3000
3000
3000
F000
ENDCHAR
STARTCHAR .uni005E
ENCODING 94
SWIDTH 526 0
DWIDTH 10 0
BBX 8 4 1 9
BITMAP
1800
3C00
6600
C300
ENDCHAR
STARTCHAR .uni005F
ENCODING 95
SWIDTH 526 0
DWIDTH 10 0
BBX 8 1 1 0
BITMAP
FF00
ENDCHAR
STARTCHAR .uni0060
ENCODING 96
SWIDTH 526 0
DWIDTH 10 0
BBX 4 3 3 10
BITMAP
C000
6000
3000
ENDCHAR
STARTCHAR .uni0061
ENCODING 97
SWIDTH 526 0
DWIDTH 10 0
BBX 8 9 1 0
BITMAP
3C00
0600
0300
0300
3F00
6300
C300
6300
3F00
ENDCHAR
STARTCHAR .uni0062
ENCODING 98
SWIDTH 526 0
DWIDTH 10 0
BBX 8 13 1 0
BITMAP
C000
C000
C000
C000
FC00
C600
C300
C300
C300
C300
C300
C600
FC00
ENDCHAR
STARTCHAR .uni0063
ENCODING 99
SWIDTH 526 0
DWIDTH 10 0
BBX 8 9 1 0
BITMAP
3C00
6600
C300
C000
C000
C000
C300
6600
3C00
ENDCHAR
STARTCHAR .uni0064
ENCODING 100
SWIDTH 526 0
DWIDTH 10 0
BBX 8 13 1 0
BITMAP
0300
0300
0300
0300
3F00
6300
C300
C300
C300
C300
C300
6300
3F00
ENDCHAR
STARTCHAR .uni0065
ENCODING 101
SWIDTH 526 0
DWIDTH 10 0
BBX 8 9 1 0
BITMAP
3C00
6600
C300
C300
FF00
C000
C000
6000
3E00
ENDCHAR
STARTCHAR .uni0066
ENCODING 102
SWIDTH 526 0
DWIDTH 10 0
BBX 8 13 1 0
BITMAP
0F00
1800
3000
3000
FC00
3000
3000
3000
3000
3000
3000
3000
3000
ENDCHAR
STARTCHAR .uni0067
ENCODING 103
SWIDTH 526 0
DWIDTH 10 0
BBX 8 13 1 -4
BITMAP
3F00
6300
C300
C300
C300
C300
C300
6300
3F00
0300
0300
0600
7C00
ENDCHAR
STARTCHAR .uni0068
ENCODING 104
SWIDTH 526 0
DWIDTH 10 0
BBX 8 13 1 0
BITMAP
C000
C000
C000
C000
FC00
C600
C300
C300
C300
C300
C300
C300
C300
ENDCHAR
STARTCHAR .uni0069
ENCODING 105
SWIDTH 526 0
DWIDTH 10 0
BBX 8 12 1 0
BITMAP
1800
0000
0000
7800
1800
1800
1800
1800
1800
1800
1800
FF00
ENDCHAR
STARTCHAR .uni006A
ENCODING 106
SWIDTH 526 0
DWIDTH 10 0
BBX 6 16 2 -4
BITMAP
0C00
0000
0000
3C00
0C00
0C00
0C00
0C00
0C00
0C00
0C00
0C00
0C00
0C00
1800
F000
ENDCHAR
STARTCHAR .uni006B
ENCODING 107
SWIDTH 526 0
DWIDTH 10 0
BBX 7 13 2 0
BITMAP
C000
C000
C000
C000
C600
CC00
D800
F000
E000
F000
D800
CC00
C600
ENDCHAR
STARTCHAR .uni006C
ENCODING 108
SWIDTH 526 0
DWIDTH 10 0
BBX 8 13 1 0
BITMAP
7800
1800
1800
1800
1800
1800
1800
1800
1800
1800
1800
1800
FF00
ENDCHAR
STARTCHAR .uni006D
ENCODING 109
SWIDTH 526 0
DWIDTH 10 0
BBX 8 9 1 0
BITMAP
3C00
7E00
DB00
DB00
DB00
DB00
DB00
DB00
DB00
ENDCHAR
STARTCHAR .uni006E
ENCODING 110
SWIDTH 526 0
DWIDTH 10 0
BBX 8 9 1 0
BITMAP
FC00
C600
C300
C300
C300
C300
C300
C300
C300
ENDCHAR
STARTCHAR .uni006F
ENCODING 111
SWIDTH 526 0
DWIDTH 10 0
BBX 8 9 1 0
BITMAP
3C00
6600
C300
C300
C300
C300
C300
6600
3C00
ENDCHAR
STARTCHAR .uni0070
ENCODING 112
SWIDTH 526 0
DWIDTH 10 0
BBX 8 13 1 -4
BITMAP
FC00
C600
C300
C300
C300
C300
C300
C600
FC00
C000
C000
C000
C000
ENDCHAR
STARTCHAR .uni0071
ENCODING 113
SWIDTH 526 0
DWIDTH 10 0
BBX 8 13 1 -4
BITMAP
3F00
6300
C300
C300
C300
C300
C300
6300
3F00
0300
0300
0300
0300
ENDCHAR
STARTCHAR .uni0072
ENCODING 114
SWIDTH 526 0
DWIDTH 10 0
BBX 8 9 1 0
BITMAP
FC00
C600
C300
C000
C000
C000
C000
C000
C000
ENDCHAR
STARTCHAR .uni0073
ENCODING 115
SWIDTH 526 0
DWIDTH 10 0
BBX 8 9 1 0
BITMAP
3C00
6600
C000
6000
3C00
0600
0300
6600
3C00
ENDCHAR
STARTCHAR .uni0074
ENCODING 116
SWIDTH 526 0
DWIDTH 10 0
BBX 8 13 1 0
BITMAP
1800
1800
1800
1800
FF00
1800
1800
1800
1800
1800
1800
1800
1800
ENDCHAR
STARTCHAR .uni0075
ENCODING 117
SWIDTH 526 0
DWIDTH 10 0
BBX 8 9 1 0
BITMAP
C300
C300
C300
C300
C300
C300
C300
6600
3C00
ENDCHAR
STARTCHAR .uni0076
ENCODING 118
SWIDTH 526 0
DWIDTH 10 0
BBX 8 9 1 0
BITMAP
C300
C300
C300
C300
C300
C300
6600
3C00
1800
ENDCHAR
STARTCHAR .uni0077
ENCODING 119
SWIDTH 526 0
DWIDTH 10 0
BBX 8 9 1 0
BITMAP
DB00
DB00
DB00
DB00
DB00
DB00
DB00
7E00
3C00
ENDCHAR
STARTCHAR .uni0078
ENCODING 120
SWIDTH 526 0
DWIDTH 10 0
BBX 8 9 1 0
BITMAP
C300
C300
6600
3C00
1800
3C00
6600
C300
C300
ENDCHAR
STARTCHAR .uni0079
ENCODING 121
SWIDTH 526 0
DWIDTH 10 0
BBX 8 13 1 -4
BITMAP
C300
C300
C300
C300
C300
C300
C300
6300
3F00
0300
0300
0600
7C00
ENDCHAR
STARTCHAR .uni007A
ENCODING 122
SWIDTH 526 0
DWIDTH 10 0
BBX 8 9 1 0
BITMAP
FF00
0300
0600
0C00
1800
3000
6000
C000
FF00
ENDCHAR
STARTCHAR .uni007B
ENCODING 123
SWIDTH 526 0
DWIDTH 10 0
BBX 6 17 2 -4
BITMAP
0C00
1800
3000
3000
3000
3000
3000
6000
C000
6000
3000
3000
3000
3000
3000
1800
0C00
ENDCHAR
STARTCHAR .uni007C
ENCODING 124
SWIDTH 526 0
DWIDTH 10 0
BBX 2 17 4 -4
BITMAP
C000
C000
C000
C000
C000
C000
C000
C000
C000
C000
C000
C000
C000
C000
C000
C000
C000
ENDCHAR
STARTCHAR .uni007D
ENCODING 125
SWIDTH 526 0
DWIDTH 10 0
BBX 6 17 2 -4
BITMAP
C000
6000
3000
3000
3000
3000
3000
1800
0C00
1800
3000
3000
3000
3000
3000
6000
C000
ENDCHAR
STARTCHAR .uni007E
ENCODING 126
SWIDTH 526 0
DWIDTH 10 0
BBX 8 3 1 5
BITMAP
7000
DB00
0E00
ENDCHAR
STARTCHAR .uni00AC
ENCODING 172
SWIDTH 526 0
DWIDTH 10 0
BBX 8 3 1 5
BITMAP
FF00
0300
0300
ENDCHAR
STARTCHAR .uni00B7
ENCODING 183
SWIDTH 526 0
DWIDTH 10 0
BBX 2 1 4 6
BITMAP
C000
ENDCHAR
STARTCHAR .uni00D7
ENCODING 215
SWIDTH 526 0
DWIDTH 10 0
BBX 6 5 2 4
BITMAP
CC00
7800
3000
7800
CC00
ENDCHAR
STARTCHAR .uni0393
ENCODING 915
SWIDTH 526 0
DWIDTH 10 0
BBX 8 13 1 0
BITMAP
FF00
C000
C000
C000
C000
C000
C000
C000
C000
C000
C000
C000
C000
ENDCHAR
STARTCHAR .uni0394
ENCODING 916
SWIDTH 1111 0
DWIDTH 20 0
BBX 14 13 3 0
BITMAP
0300
0300
0780
0780
0CC0
0CC0
1860
1860
3030
3030
6018
6018
FFFC
ENDCHAR
STARTCHAR .uni039B
ENCODING 923
SWIDTH 1111 0
DWIDTH 20 0
BBX 14 13 3 0
BITMAP
0300
0300
0780
0780
0CC0
0CC0
1860
1860
3030
3030
6018
6018
E01C
ENDCHAR
STARTCHAR .uni03A0
ENCODING 928
SWIDTH 526 0
DWIDTH 10 0
BBX 8 13 1 0
BITMAP
FF00
C300
C300
C300
C300
C300
C300
C300
C300
C300
C300
C300
C300
ENDCHAR
STARTCHAR .uni03A3
ENCODING 931
SWIDTH 526 0
DWIDTH 10 0
BBX 8 13 1 0
BITMAP
FF00
C000
6000
3000
1800
0C00
0600
0C00
1800
3000
6000
C000
FF00
ENDCHAR
STARTCHAR .uni03B1
ENCODING 945
SWIDTH 526 0
DWIDTH 10 0
BBX 8 9 1 0
BITMAP
3B00
6F00
C600
C600
C600
C600
C600
6F00
3B00
ENDCHAR
STARTCHAR .uni03B2
ENCODING 946
SWIDTH 526 0
DWIDTH 10 0
BBX 8 15 1 -2
BITMAP
7800
CC00
C600
CC00
D800
F000
D800
CC00
C600
C300
C600
CC00
F800
C000
C000
ENDCHAR
STARTCHAR .uni03B3
ENCODING 947
SWIDTH 526 0
DWIDTH 10 0
BBX 8 11 1 -2
BITMAP
C300
C300
C300
C300
C300
C300
6600
3C00
1800
3000
E000
ENDCHAR
STARTCHAR .uni03B4
ENCODING 948
SWIDTH 526 0
DWIDTH 10 0
BBX 8 13 1 0
BITMAP
3E00
6000
C000
C000
6000
3C00
6600
C300
C300
C300
C300
6600
3C00
ENDCHAR
STARTCHAR .uni03B5
ENCODING 949
SWIDTH 526 0
DWIDTH 10 0
BBX 8 9 1 0
BITMAP
3F00
6000
C000
C000
FF00
C000
C000
6000
3F00
ENDCHAR
STARTCHAR .uni03B8
ENCODING 952
SWIDTH 526 0
DWIDTH 10 0
BBX 8 13 1 0
BITMAP
3C00
6600
C300
C300
C300
C300
FF00
C300
C300
C300
C300
6600
3C00
ENDCHAR
STARTCHAR .uni03BB
ENCODING 955
SWIDTH 526 0
DWIDTH 10 0
BBX 8 11 1 0
BITMAP
C000
C000
C000
6000
3000
1800
3C00
6600
C300
C300
C300
ENDCHAR
STARTCHAR .uni03BC
ENCODING 956
SWIDTH 526 0
DWIDTH 10 0
BBX 8 11 1 -2
BITMAP
C300
C300
C300
C300
C300
C300
C300
C600
FC00
C000
C000
ENDCHAR
STARTCHAR .uni03BD
ENCODING 957
SWIDTH 526 0
DWIDTH 10 0
BBX 8 9 1 0
BITMAP
C300
C300
C300
C300
C300
C600
CC00
D800
F000
ENDCHAR
STARTCHAR .uni03C0
ENCODING 960
SWIDTH 526 0
DWIDTH 10 0
BBX 8 9 1 0
BITMAP
FF00
6600
6600
6600
6600
6600
6600
6600
6600
ENDCHAR
STARTCHAR .uni03C3
ENCODING 963
SWIDTH 526 0
DWIDTH 10 0
BBX 8 9 1 0
BITMAP
3F00
6600
C600
C600
C600
C600
C600
6C00
3800
ENDCHAR
STARTCHAR .uni03C4
ENCODING 964
SWIDTH 526 0
DWIDTH 10 0
BBX 8 9 1 0
BITMAP
FF00
1800
1800
1800
1800
1800
1800
1800
1800
ENDCHAR
STARTCHAR .uni03C6
ENCODING 966
SWIDTH 526 0
DWIDTH 10 0
BBX 8 13 1 0
BITMAP
0600
CF00
DB00
DB00
DB00
DB00
7E00
3C00
1800
1800
1800
1800
1800
ENDCHAR
STARTCHAR .uni03C7
ENCODING 967
SWIDTH 526 0
DWIDTH 10 0
BBX 8 13 1 0
BITMAP
0300
0300
0300
C300
6600
3C00
1800
3C00
6600
C300
C000
C000
C000
ENDCHAR
STARTCHAR .uni03C8
ENCODING 968
SWIDTH 526 0
DWIDTH 10 0
BBX 8 13 1 0
BITMAP
DB00
DB00
DB00
DB00
DB00
DB00
7E00
3C00
1800
1800
1800
1800
1800
ENDCHAR
STARTCHAR .uni201C
ENCODING 8220
SWIDTH 526 0
DWIDTH 10 0
BBX 6 3 2 10
BITMAP
F000
7800
3C00
ENDCHAR
STARTCHAR .uni201D
ENCODING 8221
SWIDTH 526 0
DWIDTH 10 0
BBX 6 3 2 10
BITMAP
3C00
7800
F000
ENDCHAR
STARTCHAR .uni2102
ENCODING 8450
SWIDTH 526 0
DWIDTH 10 0
BBX 8 13 1 0
BITMAP
3C00
7600
F300
F000
F000
F000
F000
F000
F000
F000
F300
7600
3C00
ENDCHAR
STARTCHAR .uni2115
ENCODING 8469
SWIDTH 526 0
DWIDTH 10 0
BBX 8 13 1 0
BITMAP
C300
E300
F300
FB00
FF00
DF00
CF00
C700
C300
C300
C300
C300
C300
ENDCHAR
STARTCHAR .uni211A
ENCODING 8474
SWIDTH 526 0
DWIDTH 10 0
BBX 8 13 1 0
BITMAP
3C00
7600
F300
F300
F300
F300
F300
F300
F300
F300
FF00
7600
3F00
ENDCHAR
STARTCHAR .uni211D
ENCODING 8477
SWIDTH 526 0
DWIDTH 10 0
BBX 8 13 1 0
BITMAP
FC00
F600
F300
F300
F300
F600
FC00
F600
F300
F300
F300
F300
F300
ENDCHAR
STARTCHAR .uni2124
ENCODING 8484
SWIDTH 526 0
DWIDTH 10 0
BBX 8 13 1 0
BITMAP
FF00
0300
0300
0700
0F00
1E00
3C00
7800
F000
E000
C000
C000
FF00
ENDCHAR
STARTCHAR .uni2190
ENCODING 8592
SWIDTH 526 0
DWIDTH 10 0
BBX 8 5 1 4
BITMAP
3000
6000
FF00
6000
3000
ENDCHAR
STARTCHAR .uni2192
ENCODING 8594
SWIDTH 526 0
DWIDTH 10 0
BBX 8 5 1 4
BITMAP
0C00
0600
FF00
0600
0C00
ENDCHAR
STARTCHAR .uni2194
ENCODING 8596
SWIDTH 526 0
DWIDTH 10 0
BBX 8 5 1 4
BITMAP
3C00
6600
FF00
6600
3C00
ENDCHAR
STARTCHAR .uni2200
ENCODING 8704
SWIDTH 1111 0
DWIDTH 20 0
BBX 14 13 3 0
BITMAP
E01C
6018
6018
3030
3030
1860
1FE0
0CC0
0CC0
0780
0780
0300
0300
ENDCHAR
STARTCHAR .uni2202
ENCODING 8706
SWIDTH 526 0
DWIDTH 10 0
BBX 8 13 1 0
BITMAP
3800
0C00
0600
0300
0300
0300
3F00
6300
C300
C300
C300
6300
3E00
ENDCHAR
STARTCHAR .uni2203
ENCODING 8707
SWIDTH 1111 0
DWIDTH 20 0
BBX 10 13 5 0
BITMAP
FFC0
00C0
00C0
00C0
00C0
00C0
FFC0
00C0
00C0
00C0
00C0
00C0
FFC0
ENDCHAR
STARTCHAR .uni2205
ENCODING 8709
SWIDTH 1111 0
DWIDTH 20 0
BBX 14 13 3 0
BITMAP
0FCC
1878
3030
6078
C0CC
C18C
C30C
C60C
CC0C
7818
3030
7860
CFC0
ENDCHAR
STARTCHAR .uni2208
ENCODING 8712
SWIDTH 526 0
DWIDTH 10 0
BBX 8 9 1 2
BITMAP
1F00
3000
6000
C000
FF00
C000
6000
3000
1F00
ENDCHAR
STARTCHAR .uni2209
ENCODING 8713
SWIDTH 526 0
DWIDTH 10 0
BBX 8 9 1 2
BITMAP
1F00
3300
6600
CC00
FF00
F000
6000
F000
1F00
ENDCHAR
STARTCHAR .uni2218
ENCODING 8728
SWIDTH 526 0
DWIDTH 10 0
BBX 4 3 3 5
BITMAP
6000
F000
6000
ENDCHAR
STARTCHAR .uni221E
ENCODING 8734
SWIDTH 1111 0
DWIDTH 20 0
BBX 14 7 3 3
BITMAP
3870
6CD8
C78C
C30C
C78C
6CD8
3870
ENDCHAR
STARTCHAR .uni2227
ENCODING 8743
SWIDTH 526 0
DWIDTH 10 0
BBX 8 4 1 4
BITMAP
1800
3C00
6600
C300
ENDCHAR
STARTCHAR .uni2228
ENCODING 8744
SWIDTH 526 0
DWIDTH 10 0
BBX 8 4 1 4
BITMAP
C300
6600
3C00
1800
ENDCHAR
STARTCHAR .uni2229
ENCODING 8745
SWIDTH 526 0
DWIDTH 10 0
BBX 8 11 1 0
BITMAP
3C00
6600
C300
C300
C300
C300
C300
C300
C300
C300
C300
ENDCHAR
STARTCHAR .uni222A
ENCODING 8746
SWIDTH 526 0
DWIDTH 10 0
BBX 8 11 1 0
BITMAP
C300
C300
C300
C300
C300
C300
C300
C300
C300
6600
3C00
ENDCHAR
STARTCHAR .uni2260
ENCODING 8800
SWIDTH 526 0
DWIDTH 10 0
BBX 8 9 1 2
BITMAP
1800
1800
FF00
1800
1800
1800
FF00
1800
1800
ENDCHAR
STARTCHAR .uni2261
ENCODING 8801
SWIDTH 526 0
DWIDTH 10 0
BBX 8 5 1 4
BITMAP
FF00
0000
FF00
0000
FF00
ENDCHAR
STARTCHAR .uni2264
ENCODING 8804
SWIDTH 526 0
DWIDTH 10 0
BBX 6 11 2 0
BITMAP
0C00
1800
3000
6000
C000
6000
3000
1800
0C00
0000
FC00
ENDCHAR
STARTCHAR .uni2265
ENCODING 8805
SWIDTH 526 0
DWIDTH 10 0
BBX 6 11 2 0
BITMAP
C000
6000
3000
1800
0C00
1800
3000
6000
C000
0000
FC00
ENDCHAR
STARTCHAR .uni2282
ENCODING 8834
SWIDTH 526 0
DWIDTH 10 0
BBX 8 11 1 0
BITMAP
1F00
3000
6000
C000
C000
C000
C000
C000
6000
3000
1F00
ENDCHAR
STARTCHAR .uni2286
ENCODING 8838
SWIDTH 526 0
DWIDTH 10 0
BBX 8 13 1 -2
BITMAP
1F00
3000
6000
C000
C000
C000
C000
C000
6000
3000
1F00
0000
1F00
ENDCHAR
STARTCHAR .uni22C2
ENCODING 8898
SWIDTH 526 0
DWIDTH 10 0
BBX 8 15 1 -4
BITMAP
3C00
6600
C300
C300
C300
C300
C300
C300
C300
C300
C300
C300
C300
C300
C300
ENDCHAR
STARTCHAR .uni22C3
ENCODING 8899
SWIDTH 526 0
DWIDTH 10 0
BBX 8 15 1 -4
BITMAP
C300
C300
C300
C300
C300
C300
C300
C300
C300
C300
C300
C300
C300
6600
3C00
ENDCHAR
STARTCHAR .uni27E8
ENCODING 10216
SWIDTH 526 0
DWIDTH 10 0
BBX 8 17 1 -4
BITMAP
0300
0600
0C00
1800
3000
6000
C000
C000
C000
C000
C000
6000
3000
1800
0C00
0600
0300
ENDCHAR
STARTCHAR .uni27E9
ENCODING 10217
SWIDTH 526 0
DWIDTH 10 0
BBX 8 17 1 -4
BITMAP
C000
6000
3000
1800
0C00
0600
0300
0300
0300
0300
0300
0600
0C00
1800
3000
6000
C000
ENDCHAR
ENDFONT
